<svg width="19" height="24" viewBox="0 0 19 24" fill="none" xmlns="http://www.w3.org/2000/svg">
<path d="M18.9939 20.1497C17.0257 20.9447 15.0589 21.8346 13.0904 22.6373C12.285 22.9657 11.3269 23.4211 10.5246 23.7127C10.3291 23.8094 10.0609 23.9135 9.85592 24C9.83183 23.6459 9.85621 22.9877 9.85621 22.6081L9.85545 16.3023C9.85642 15.7847 9.83695 15.0418 9.87176 14.5354C10.6692 14.1756 11.5462 13.827 12.3578 13.4857L16.8051 11.6084C17.4894 11.3191 18.3297 10.9843 18.9913 10.677L18.9939 20.1497Z" fill="black"/>
<path d="M4.14693 12.4232C4.80035 12.6979 5.73177 13.058 6.35058 13.3619C6.6407 13.4623 6.97654 13.6118 7.25625 13.7419C7.40424 13.8064 7.69872 13.9452 7.84372 13.9726L7.88138 14.0077C8.00754 14.0574 8.14875 14.1057 8.26328 14.1757C8.51806 14.2563 8.85574 14.4284 9.13495 14.5312C9.14786 14.9308 9.1459 15.344 9.14323 15.7441C9.12448 18.4912 9.17852 21.2463 9.14541 23.9924L3.01653 21.4187C2.02245 20.9988 1.00984 20.5477 0.011559 20.1469C-0.0144127 18.1279 0.0115426 16.0589 0.0112262 14.0377L0.00694748 11.9024C0.00650934 11.5674 -0.00644064 11.0052 0.0211624 10.6835L4.14693 12.4232Z" fill="black"/>
<path d="M18.9971 7.59163C18.9917 8.35304 18.9808 9.16547 19 9.92488L9.85497 13.7887C9.83891 13.1594 9.86374 12.5402 9.86277 11.9136C9.86277 11.8231 9.86689 11.7286 9.86957 11.6376C9.86446 11.5988 9.8467 11.4878 9.86348 11.471C9.97326 11.3616 10.5265 11.1627 10.6604 11.1095C10.9564 10.9642 11.5275 10.7267 11.8388 10.614C11.9218 10.5656 11.935 10.5636 12.0289 10.5379C12.2332 10.4185 13.0556 10.0817 13.2964 9.99361C13.3873 9.93261 14.6086 9.4346 14.7559 9.3743C15.101 9.21548 15.5053 9.05357 15.8597 8.90887L17.82 8.07923C18.0787 7.96817 18.7505 7.66185 18.9971 7.59163Z" fill="black"/>
<path d="M0.00894423 7.58429C1.33484 8.10365 2.80501 8.75682 4.11854 9.3178L9.13957 11.4417C9.14176 11.6949 9.13788 11.9528 9.13667 12.2065L9.13301 12.4968C9.14128 12.9249 9.14396 13.3529 9.14104 13.7809C8.91005 13.6852 8.67972 13.5881 8.45002 13.4892L8.32722 13.4372C8.17392 13.365 7.96181 13.2852 7.80132 13.2191C7.67072 13.1709 7.54571 13.1152 7.41789 13.0601L3.23874 11.2963C2.19978 10.8535 1.05599 10.3444 0.0103705 9.93251C0.000585333 9.15648 0.0124494 8.36358 0.00894423 7.58429Z" fill="black"/>
<path d="M3.71991 5.67628C4.57314 5.98773 5.61195 6.47012 6.47091 6.83347L11.684 9.04304C12.0231 9.1802 12.3619 9.34324 12.7002 9.46921C12.5053 9.56465 11.1755 10.1637 11.0404 10.173C10.6246 10.3739 9.92724 10.6763 9.49299 10.8337C8.04709 10.2629 6.53092 9.5911 5.094 8.97615C3.52657 8.32254 1.9625 7.66072 0.401781 6.99072C1.48382 6.58365 2.6431 6.04774 3.71991 5.67628Z" fill="black"/>
<path d="M5.55283 4.91416C5.70401 4.91127 6.62447 5.32384 6.8346 5.41258L14.5699 8.69284C14.2607 8.8325 13.9426 8.95322 13.6296 9.09674C13.4745 9.0917 11.9484 8.40764 11.6601 8.28493L7.32148 6.44801C6.48102 6.08936 5.44517 5.61317 4.60646 5.3044C4.92519 5.18264 5.24073 5.05251 5.55283 4.91416Z" fill="black"/>
<path d="M13.7413 5.84025C13.9648 5.80791 14.585 5.85041 14.8308 5.87662C15.1146 5.90683 15.5723 5.86972 15.8011 5.89946C16.0016 5.92557 16.6375 6.19663 16.857 6.28743C17.4349 6.53164 18.0147 6.77078 18.5964 7.00487L16.5398 7.86721C16.1993 7.99967 15.8242 8.17855 15.4754 8.32211C14.3769 7.89457 13.1985 7.37295 12.1139 6.90041C12.4393 6.23691 13.0381 5.91705 13.7413 5.84025Z" fill="black"/>
<path fill-rule="evenodd" clip-rule="evenodd" d="M15.4218 1.14181C15.7227 0.185326 16.8013 -0.208711 17.6963 0.107013C18.1651 0.26834 18.5505 0.614762 18.7651 1.06807C19.0589 1.68618 19.0545 2.41617 18.8376 3.05745C18.3012 4.64255 16.5355 5.25603 15.0124 5.07344L15.0211 5.03017L15.0124 5.07354C14.7892 5.06041 14.566 5.0486 14.3425 5.03809C13.2299 4.99047 12.2446 5.26424 11.5808 6.23845C11.5048 6.34983 11.4479 6.47623 11.3498 6.5675L11.3081 6.56562C11.2366 6.41388 11.3208 6.08369 11.3685 5.92153C11.5185 5.39528 11.8222 4.92766 12.2394 4.58048C12.882 4.04873 13.7486 3.83425 14.5614 3.854C15.7529 3.88299 17.1861 3.89619 17.5902 2.47654C17.6206 2.48964 17.634 2.48513 17.6384 2.51952C17.6531 2.6364 17.6561 2.75005 17.6486 2.86021C17.6561 2.75003 17.6531 2.63633 17.6384 2.51943C17.634 2.48505 17.6206 2.48964 17.5902 2.47654C17.6079 2.17617 17.5814 1.92399 17.3706 1.6852C17.2194 1.51263 17.0033 1.413 16.776 1.41097C16.5625 1.40763 16.3573 1.49321 16.2076 1.64777C16.073 1.78852 16.0004 1.97906 16.007 2.17531C16.0141 2.40822 16.108 2.58186 16.2404 2.76265L16.2061 2.75236C15.4898 2.53211 15.2023 1.8401 15.4218 1.14181Z" fill="black"/>
<path d="M9.4755 3.30724C9.74787 3.33461 11.1793 3.99023 11.5452 4.13466C10.8698 4.89051 10.7123 5.2312 10.4798 6.22058C10.0663 6.033 9.60111 5.85664 9.1766 5.67116C8.29632 5.27517 7.38905 4.9126 6.50176 4.52084C7.42897 4.17212 8.55234 3.69603 9.4755 3.30724Z" fill="black"/>
<path d="M13.679 0.841555C14.8853 0.766926 15.0552 2.24251 14.3063 2.81587C13.7157 3.26774 12.901 3.29205 12.2046 3.70535L12.1776 3.70617C12.4232 2.89352 13.634 2.80967 13.8428 2.11316C13.8857 1.97381 13.8696 1.82271 13.7987 1.69573C13.5943 1.33669 13.3032 1.47964 13.0442 1.64395L13.0222 1.62024C13.0279 1.18134 13.2849 0.947934 13.679 0.841555Z" fill="black"/>
</svg>
