<svg width="24" height="24" viewBox="0 0 24 24" fill="none" xmlns="http://www.w3.org/2000/svg">
<path d="M11.8686 17.0574C13.3921 16.9816 14.2457 18.0558 15.2233 19.0273L17.4229 21.2111L18.5863 22.363C18.7326 22.507 19.0938 22.8453 19.2101 22.9924C19.315 23.1245 19.3617 23.2934 19.3397 23.4605C19.2856 23.8719 18.7625 24.1508 18.4359 23.9118C18.0852 23.6552 17.723 23.2404 17.4068 22.9261L14.6156 20.1676L13.7962 19.3537C13.305 18.8643 12.9031 18.4145 12.1832 18.299C11.328 18.1818 10.7123 18.8441 10.1658 19.3883L9.36087 20.189L6.53861 22.977C6.35194 23.162 6.16658 23.3482 5.9825 23.5356C5.87245 23.647 5.76168 23.7685 5.63769 23.8636C5.41406 24.035 5.09901 24.0323 4.88079 23.8532C4.75207 23.7466 4.67142 23.5931 4.65677 23.4267C4.62884 23.0943 4.83632 22.9415 5.04788 22.7284C5.27771 22.4968 5.51122 22.2683 5.74287 22.0385L9.20287 18.6085C10.0373 17.7899 10.6044 17.142 11.8686 17.0574Z" fill="black"/>
<path d="M0.549659 4.88799C0.966778 4.87545 1.17089 5.18002 1.45115 5.44602L4.71896 8.53803C5.21007 9.00508 5.72593 9.46629 6.1514 9.99198C7.00605 11.0479 7.13794 12.5779 6.36266 13.7152C5.93761 14.3387 5.35878 14.8765 4.82907 15.4154L1.62642 18.6833C1.42516 18.8908 1.22829 19.1137 1.01413 19.3083C0.909318 19.4035 0.820072 19.4336 0.686124 19.462C0.380336 19.4707 0.106242 19.3092 0.0220891 19.0033C-0.0859803 18.6102 0.224896 18.3637 0.468655 18.1145L1.12404 17.4488L3.96728 14.5377C4.40986 14.0794 4.95678 13.5943 5.30451 13.0647C5.61871 12.5863 5.73866 12.0416 5.55731 11.4891C5.33714 10.8182 4.8796 10.4046 4.38322 9.93055L3.55325 9.14194L0.892888 6.62394L0.450872 6.19986C0.268809 6.02649 0.0766893 5.89277 0.0170338 5.63421C-0.0204816 5.47703 0.00727198 5.31136 0.0939643 5.17488C0.20517 5.00133 0.356861 4.92876 0.549659 4.88799Z" fill="black"/>
<path d="M23.2788 5.0397C23.8504 4.98727 24.1741 5.5739 23.9025 5.96705C23.7333 6.21198 23.1706 6.67455 22.9344 6.89033L20.4554 9.15345C19.9677 9.59999 19.4493 10.0568 18.9997 10.5383C18.7976 10.7546 18.6646 10.9619 18.5394 11.2258C18.2961 11.7226 18.2885 12.2291 18.5131 12.7358C18.7448 13.2584 19.1323 13.6148 19.5251 14.0148L23.0969 17.6738C23.301 17.8846 23.8685 18.3986 23.9518 18.6442C24.0084 18.8087 23.9932 18.9893 23.9101 19.1421C23.8081 19.328 23.6722 19.3986 23.481 19.4545C23.368 19.4659 23.1737 19.45 23.0851 19.3856C22.8715 19.2302 22.6243 18.9495 22.4376 18.7592L21.1964 17.4893L18.9928 15.2408C18.2617 14.4887 17.4791 13.8251 17.2081 12.7635C17.0069 11.9495 17.1411 11.089 17.5805 10.3744C17.9995 9.67843 18.7488 9.03947 19.345 8.4873C19.9834 7.89642 20.6265 7.31082 21.2747 6.73065L22.3572 5.74536C22.5928 5.52963 22.9822 5.11254 23.2788 5.0397Z" fill="black"/>
<path d="M12.0119 9.21397C13.5507 9.21397 14.7982 10.4584 14.7982 11.9934C14.7982 13.5285 13.5507 14.7729 12.0119 14.7729C10.4731 14.7729 9.22565 13.5285 9.22565 11.9934C9.22565 10.4584 10.4731 9.21397 12.0119 9.21397Z" fill="black"/>
<path d="M18.327 0.141582C18.5686 -0.0624115 18.92 -0.0438717 19.1452 0.183647C19.2597 0.298835 19.3237 0.454718 19.3229 0.616929C19.3199 0.926553 19.0871 1.10692 18.8824 1.31366L15.638 4.54077L14.7026 5.47399C14.1082 6.06588 13.585 6.59965 12.7432 6.83925C11.6744 7.14347 10.6316 6.75115 9.846 6.01303C9.50114 5.689 9.17179 5.35505 8.83755 5.02134L5.67397 1.86952C5.40552 1.6023 5.12912 1.33223 4.8691 1.05733C4.78911 0.97275 4.72564 0.878351 4.6954 0.764185C4.6539 0.605938 4.67799 0.437661 4.76228 0.297351C4.86565 0.125664 5.00776 0.0580381 5.19187 0.0121846C5.21347 0.0103925 5.23511 0.00896158 5.25675 0.00788325C5.6458 -0.0104856 5.90386 0.347094 6.16015 0.603105L9.37987 3.8136C9.73138 4.16361 10.0856 4.51207 10.4355 4.865C10.9396 5.37341 11.5919 5.85082 12.3495 5.655C12.9682 5.49509 13.3804 5.04835 13.8149 4.61357L17.9114 0.536123C18.0488 0.399158 18.1784 0.267065 18.327 0.141582Z" fill="black"/>
</svg>
